<?xml version="1.0" standalone="no"?>
<!DOCTYPE svg PUBLIC "-//W3C//DTD SVG 20010904//EN"
 "http://www.w3.org/TR/2001/REC-SVG-20010904/DTD/svg10.dtd">
<svg version="1.0" xmlns="http://www.w3.org/2000/svg"
 width="300.000000pt" height="300.000000pt" viewBox="0 0 300.000000 300.000000"
 preserveAspectRatio="xMidYMid meet">
<metadata>
Created by potrace 1.14, written by Peter Selinger 2001-2017
</metadata>
<g transform="translate(0.000000,300.000000) scale(0.100000,-0.100000)"
fill="#000000" stroke="none">
<path d="M1457 2340 c5 -138 4 -165 -11 -205 -23 -59 -72 -98 -120 -94 -42 4
-45 1 -69 -59 -92 -233 -98 -253 -112 -390 -9 -80 -20 -144 -29 -157 -35 -53
-125 -36 -166 30 -18 29 -25 57 -28 116 -6 96 -15 95 -77 -9 -94 -159 -126
-329 -85 -464 24 -80 52 -130 141 -244 33 -42 59 -81 59 -86 0 -20 -35 -20
-77 1 -25 12 -48 20 -51 17 -6 -6 84 -89 143 -131 47 -34 155 -90 195 -101
l25 -6 -26 20 c-24 19 -49 78 -49 115 0 9 -25 53 -56 99 l-55 83 2 87 c2 58
-1 91 -10 101 -8 11 -10 30 -6 59 l7 44 56 -4 c50 -3 61 0 94 25 53 40 86 111
98 213 26 212 61 296 187 457 93 119 112 160 113 236 0 42 4 57 14 57 26 0
131 -126 173 -206 45 -86 75 -212 69 -286 -17 -187 -17 -254 -1 -296 23 -57
71 -86 131 -79 31 3 44 1 44 -8 0 -7 7 -18 15 -25 19 -16 19 -60 0 -130 -8
-30 -15 -63 -15 -73 0 -26 45 -67 75 -67 14 0 25 -5 25 -10 0 -23 -62 -132
-106 -186 -25 -31 -51 -73 -56 -93 -6 -20 -19 -48 -30 -63 l-19 -27 41 14 c50
18 155 76 195 109 l30 25 -42 -6 c-38 -5 -43 -3 -43 15 0 11 32 55 71 98 145
159 175 232 166 404 -6 110 -36 237 -82 338 -28 61 -45 67 -45 16 0 -46 -14
-70 -50 -89 -26 -13 -34 -14 -63 -1 -53 22 -63 59 -49 175 16 126 15 174 -3
246 -22 82 -65 151 -155 242 -80 82 -364 313 -384 313 -3 0 -3 -72 1 -160z
m-544 -929 c35 -63 34 -71 -2 -37 -26 25 -48 86 -31 86 4 0 19 -22 33 -49z"/>
<path d="M956 2017 c-3 -12 -26 -47 -52 -77 -60 -72 -74 -106 -74 -182 l0 -62
49 48 c61 60 92 129 99 217 4 65 -10 103 -22 56z"/>
</g>
</svg>
